<svg width="11" height="20" viewBox="0 0 11 20" fill="none" xmlns="http://www.w3.org/2000/svg">
<path id="Vector" d="M2.1841 9.99994L9.7168 17.5326C9.91552 17.7314 10.0123 17.9653 10.0072 18.2346C10.002 18.5038 9.90012 18.7377 9.7014 18.9365C9.5027 19.1352 9.26873 19.2345 8.9995 19.2345C8.73027 19.2345 8.4963 19.1352 8.2976 18.9365L0.62645 11.2807C0.445667 11.0999 0.311692 10.8974 0.224525 10.673C0.137342 10.4486 0.09375 10.2243 0.09375 9.99994C0.09375 9.77559 0.137342 9.55123 0.224525 9.32687C0.311692 9.10252 0.445667 8.89996 0.62645 8.71919L8.2976 1.04804C8.4963 0.849323 8.73283 0.752522 9.0072 0.757639C9.28155 0.762772 9.51808 0.864698 9.7168 1.06341C9.91552 1.26213 10.0149 1.4961 10.0149 1.76531C10.0149 2.03455 9.91552 2.26852 9.7168 2.46724L2.1841 9.99994Z" fill="#111111"/>
</svg>
