<svg width="16" height="16" viewBox="0 0 16 16" fill="none" xmlns="http://www.w3.org/2000/svg">
<path d="M8.33332 9.03587L10.3821 11.0846C10.4744 11.1769 10.5904 11.2241 10.7301 11.2263C10.8699 11.2284 10.988 11.1812 11.0846 11.0846C11.1812 10.988 11.2295 10.8709 11.2295 10.7333C11.2295 10.5957 11.1812 10.4786 11.0846 10.3821L9.03587 8.33332L11.0846 6.28458C11.1769 6.19228 11.2241 6.07626 11.2263 5.93652C11.2284 5.79678 11.1812 5.67863 11.0846 5.58205C10.988 5.48546 10.8709 5.43717 10.7333 5.43717C10.5957 5.43717 10.4786 5.48546 10.3821 5.58205L8.33332 7.63077L6.28458 5.58205C6.19228 5.48974 6.07626 5.44252 5.93652 5.44038C5.79678 5.43824 5.67863 5.48546 5.58205 5.58205C5.48546 5.67863 5.43717 5.79572 5.43717 5.93332C5.43717 6.07092 5.48546 6.18801 5.58205 6.28458L7.63077 8.33332L5.58205 10.3821C5.48974 10.4744 5.44252 10.5904 5.44038 10.7301C5.43824 10.8699 5.48546 10.988 5.58205 11.0846C5.67863 11.1812 5.79572 11.2295 5.93332 11.2295C6.07092 11.2295 6.18801 11.1812 6.28458 11.0846L8.33332 9.03587ZM8.33443 14.6666C7.45848 14.6666 6.63512 14.5004 5.86437 14.168C5.0936 13.8355 4.42314 13.3844 3.853 12.8145C3.28284 12.2446 2.83147 11.5744 2.49888 10.804C2.16629 10.0336 2 9.21039 2 8.33443C2 7.45848 2.16622 6.63512 2.49867 5.86437C2.83111 5.0936 3.28228 4.42315 3.85217 3.853C4.42207 3.28285 5.09223 2.83147 5.86265 2.49888C6.63306 2.1663 7.45624 2 8.3322 2C9.20816 2 10.0315 2.16622 10.8023 2.49867C11.573 2.83111 12.2435 3.28228 12.8136 3.85217C13.3838 4.42207 13.8352 5.09223 14.1678 5.86265C14.5003 6.63306 14.6666 7.45625 14.6666 8.3322C14.6666 9.20816 14.5004 10.0315 14.168 10.8023C13.8355 11.573 13.3844 12.2435 12.8145 12.8136C12.2446 13.3838 11.5744 13.8352 10.804 14.1678C10.0336 14.5003 9.21039 14.6666 8.33443 14.6666ZM8.33332 13.6667C9.82221 13.6667 11.0833 13.15 12.1167 12.1167C13.15 11.0833 13.6667 9.82221 13.6667 8.33332C13.6667 6.84443 13.15 5.58332 12.1167 4.54998C11.0833 3.51665 9.82221 2.99998 8.33332 2.99998C6.84443 2.99998 5.58332 3.51665 4.54998 4.54998C3.51665 5.58332 2.99998 6.84443 2.99998 8.33332C2.99998 9.82221 3.51665 11.0833 4.54998 12.1167C5.58332 13.15 6.84443 13.6667 8.33332 13.6667Z" fill="#666666"/>
</svg>
