<svg width="65" height="64" viewBox="0 0 65 64" fill="none" xmlns="http://www.w3.org/2000/svg">
<path d="M17.5769 42.6667H20.7564V42C20.7564 38.7419 21.8991 35.9701 24.1846 33.6846C26.4701 31.3992 29.2419 30.2564 32.5 30.2564C35.7582 30.2564 38.53 31.3992 40.8154 33.6846C43.1009 35.9701 44.2436 38.7419 44.2436 42V42.6667H47.4231V42C47.4231 37.8475 45.9746 34.3222 43.0776 31.4242C40.1806 28.526 36.6567 27.077 32.5058 27.077C28.355 27.077 24.8291 28.526 21.9282 31.4242C19.0274 34.3222 17.5769 37.8475 17.5769 42V42.6667ZM19.7923 24.1795C21.4607 23.8786 23.2034 23.2102 25.0205 22.1743C26.8376 21.1384 28.3119 19.9641 29.4436 18.6513L26.9923 16.6308C26.1035 17.6291 24.9257 18.5428 23.459 19.3718C21.9923 20.2009 20.6265 20.7436 19.3616 21L19.7923 24.1795ZM45.2077 24.1795L45.6384 21C44.3564 20.7265 42.9863 20.1795 41.5282 19.359C40.0701 18.5385 38.8966 17.6291 38.0077 16.6308L35.5565 18.6513C36.6881 19.947 38.1624 21.1171 39.9795 22.1615C41.7966 23.2059 43.5393 23.8786 45.2077 24.1795ZM32.5045 57.3333C29.0007 57.3333 25.7072 56.6684 22.6242 55.3386C19.5411 54.0088 16.8593 52.2042 14.5787 49.9246C12.2981 47.645 10.4926 44.9644 9.16228 41.8827C7.83193 38.801 7.16675 35.5083 7.16675 32.0045C7.16675 28.5007 7.83164 25.2072 9.16142 22.1242C10.4912 19.0411 12.2959 16.3593 14.5754 14.0788C16.855 11.7981 19.5357 9.99264 22.6173 8.66228C25.699 7.33193 28.9917 6.66675 32.4956 6.66675C35.9994 6.66675 39.2928 7.33164 42.3758 8.66142C45.4589 9.9912 48.1407 11.7959 50.4213 14.0754C52.7019 16.355 54.5074 19.0357 55.8377 22.1174C57.1681 25.199 57.8333 28.4917 57.8333 31.9956C57.8333 35.4994 57.1684 38.7928 55.8386 41.8758C54.5088 44.9589 52.7042 47.6407 50.4246 49.9213C48.145 52.2019 45.4644 54.0074 42.3827 55.3377C39.301 56.6681 36.0083 57.3333 32.5045 57.3333ZM32.5 53.3334C38.4556 53.3334 43.5 51.2667 47.6334 47.1334C51.7667 43 53.8334 37.9556 53.8334 32C53.8334 26.0445 51.7667 21 47.6334 16.8667C43.5 12.7333 38.4556 10.6667 32.5 10.6667C26.5445 10.6667 21.5 12.7333 17.3667 16.8667C13.2333 21 11.1667 26.0445 11.1667 32C11.1667 37.9556 13.2333 43 17.3667 47.1334C21.5 51.2667 26.5445 53.3334 32.5 53.3334Z" fill="#8ACF2E"/>
</svg>
